<mxfile host="65bd71144e">
    <diagram id="IsBIFVABIErd_i6B1lqH" name="Page-1">
        <mxGraphModel dx="3737" dy="1650" grid="1" gridSize="10" guides="1" tooltips="1" connect="1" arrows="1" fold="1" page="1" pageScale="1" pageWidth="827" pageHeight="1169" background="#18141D" math="0" shadow="0">
            <root>
                <mxCell id="0"/>
                <mxCell id="1" parent="0"/>
                <mxCell id="181" value="" style="rounded=0;whiteSpace=wrap;html=1;fillColor=#EDEDED;labelBackgroundColor=none;" vertex="1" parent="1">
                    <mxGeometry x="-350" y="5" width="2880" height="1160" as="geometry"/>
                </mxCell>
                <mxCell id="102" value="PC+4" style="edgeStyle=none;html=1;entryX=0;entryY=0.2;entryDx=0;entryDy=0;entryPerimeter=0;fontColor=default;labelBackgroundColor=default;" parent="1" source="93" target="106" edge="1">
                    <mxGeometry x="0.935" relative="1" as="geometry">
                        <mxPoint x="-190" y="610" as="targetPoint"/>
                        <Array as="points">
                            <mxPoint x="280" y="340"/>
                            <mxPoint x="280" y="200"/>
                            <mxPoint x="-240" y="200"/>
                            <mxPoint x="-240" y="660"/>
                        </Array>
                        <mxPoint as="offset"/>
                    </mxGeometry>
                </mxCell>
                <mxCell id="93" value="add" style="shape=stencil(pZRRD4IgFIV/Da8NoZqvjWrrtYdeGxklS8Ghpf37kKstM93CzQfvOfAdvN6BKMtjnglEsOKpQHSNCEnv1XF3WO3tq9VjEAnGUJdQh03J80xEBWgPbiQ/JQKcvDD6Jkp5LhqEVLEwsqhdukF4ZdfUD2WRVspCpFZ5x/nwLYxLZffiCmBN/LOpZgRqRLbeiPB/RPCFWHicot30hgS/IZRZZahVlJ14dLsafVfnn9EZr39Dz2jtVD/EYGfGPqoFJFJ9AMIuYT4dESw9GF3Ee4T9EYFPM74Z048RTiaMAtyk9QbGqQNTRtlFGzEyfheZJHAhjKQOLnDRvQSnwvXlhBc=);whiteSpace=wrap;html=1;fontColor=default;labelBackgroundColor=default;" parent="1" vertex="1">
                    <mxGeometry x="160" y="240" width="80" height="200" as="geometry"/>
                </mxCell>
                <mxCell id="95" value="4" style="endArrow=classic;html=1;entryX=0;entryY=0.2;entryDx=0;entryDy=0;entryPerimeter=0;labelBackgroundColor=default;fontColor=default;" parent="1" target="93" edge="1">
                    <mxGeometry width="50" height="50" relative="1" as="geometry">
                        <mxPoint x="80" y="280" as="sourcePoint"/>
                        <mxPoint x="150" y="400" as="targetPoint"/>
                    </mxGeometry>
                </mxCell>
                <mxCell id="97" value="PC=intr. mem address" style="edgeStyle=none;html=1;entryX=0;entryY=0.5;entryDx=0;entryDy=0;fontColor=default;labelBackgroundColor=default;" parent="1" source="96" target="99" edge="1">
                    <mxGeometry x="0.2" relative="1" as="geometry">
                        <mxPoint x="260" y="640" as="targetPoint"/>
                        <mxPoint as="offset"/>
                    </mxGeometry>
                </mxCell>
                <mxCell id="98" value="pc" style="edgeStyle=none;html=1;entryX=0;entryY=0.8;entryDx=0;entryDy=0;entryPerimeter=0;labelBackgroundColor=default;fontColor=default;" parent="1" source="96" target="93" edge="1">
                    <mxGeometry x="0.9" relative="1" as="geometry">
                        <Array as="points">
                            <mxPoint x="120" y="720"/>
                            <mxPoint x="120" y="400"/>
                        </Array>
                        <mxPoint as="offset"/>
                    </mxGeometry>
                </mxCell>
                <mxCell id="107" value="pc" style="edgeStyle=none;html=1;fontColor=default;labelBackgroundColor=default;" parent="1" source="96" edge="1">
                    <mxGeometry x="0.7778" relative="1" as="geometry">
                        <mxPoint x="560" y="480" as="targetPoint"/>
                        <Array as="points">
                            <mxPoint x="120" y="720"/>
                            <mxPoint x="120" y="480"/>
                        </Array>
                        <mxPoint as="offset"/>
                    </mxGeometry>
                </mxCell>
                <mxCell id="96" value="PC" style="rounded=0;whiteSpace=wrap;html=1;fontColor=default;labelBackgroundColor=default;" parent="1" vertex="1">
                    <mxGeometry y="660" width="80" height="120" as="geometry"/>
                </mxCell>
                <mxCell id="108" value="instr" style="edgeStyle=none;html=1;fontColor=default;labelBackgroundColor=default;" parent="1" source="99" edge="1">
                    <mxGeometry relative="1" as="geometry">
                        <mxPoint x="560" y="720" as="targetPoint"/>
                        <mxPoint as="offset"/>
                    </mxGeometry>
                </mxCell>
                <mxCell id="99" value="instr_mem" style="rounded=0;whiteSpace=wrap;html=1;fontColor=default;labelBackgroundColor=default;" parent="1" vertex="1">
                    <mxGeometry x="280" y="560" width="160" height="320" as="geometry"/>
                </mxCell>
                <mxCell id="101" style="edgeStyle=none;html=1;entryX=0;entryY=0.5;entryDx=0;entryDy=0;exitX=1;exitY=0.5;exitDx=0;exitDy=0;exitPerimeter=0;fontColor=default;labelBackgroundColor=default;" parent="1" source="106" target="96" edge="1">
                    <mxGeometry relative="1" as="geometry">
                        <mxPoint x="-70" y="720" as="sourcePoint"/>
                        <mxPoint x="-10" y="780" as="targetPoint"/>
                    </mxGeometry>
                </mxCell>
                <mxCell id="104" value="if branch" style="endArrow=classic;html=1;entryX=0.5;entryY=0.9;entryDx=0;entryDy=0;entryPerimeter=0;fontColor=default;labelBackgroundColor=default;" parent="1" target="106" edge="1">
                    <mxGeometry width="50" height="50" relative="1" as="geometry">
                        <mxPoint x="-130" y="900" as="sourcePoint"/>
                        <mxPoint x="-120" y="840" as="targetPoint"/>
                    </mxGeometry>
                </mxCell>
                <mxCell id="106" value="mux" style="shape=stencil(rZRdD4IgFIZ/DbcNoZpdNqqt2y66bWSULAWH9vXvQ462zHQL27zgvC88Bw5HEGV5zDOBCFY8FYguECHp5b5bb+cbO7R6DCLBGOIbxGEV8jwTUQHalRvJ94kAJy+MPoubPBQVQqpYGFmULl0iPLdzyo+ySCtlIVKrvOG8+RbGpbJr8R1gVfpHFY0IxIisvBHh74jgAzHx2EW96AWZ/QMSfIdQZpWuelO259H5ZPRFHb6mznh5ly2jtlN9FZ3l7TtUDUikegOETcJ4OCKYejCaiNd/4I8IfIrxyRi+jXAwoRfgOq3VME7t6DLKjtqInvY7yiSBV6Una+cEl7qVwanwBjrhCQ==);whiteSpace=wrap;html=1;fontColor=default;labelBackgroundColor=default;" parent="1" vertex="1">
                    <mxGeometry x="-170" y="620" width="80" height="200" as="geometry"/>
                </mxCell>
                <mxCell id="109" value="IF/ID&lt;br&gt;reg" style="rounded=0;whiteSpace=wrap;html=1;fillColor=#dae8fc;strokeColor=#6c8ebf;fontColor=default;labelBackgroundColor=none;" parent="1" vertex="1">
                    <mxGeometry x="560" y="360" width="60" height="600" as="geometry"/>
                </mxCell>
                <mxCell id="110" value="regs" style="rounded=0;whiteSpace=wrap;html=1;fontColor=default;labelBackgroundColor=default;" parent="1" vertex="1">
                    <mxGeometry x="760" y="560" width="160" height="320" as="geometry"/>
                </mxCell>
                <mxCell id="139" value="read_data_1" style="edgeStyle=none;html=1;entryX=0.009;entryY=0.167;entryDx=0;entryDy=0;entryPerimeter=0;fontColor=default;labelBackgroundColor=default;" parent="1" target="174" edge="1">
                    <mxGeometry relative="1" as="geometry">
                        <mxPoint x="1121" y="580" as="sourcePoint"/>
                        <mxPoint x="1401.5" y="580" as="targetPoint"/>
                    </mxGeometry>
                </mxCell>
                <mxCell id="113" value="ID/EX&lt;br&gt;reg" style="rounded=0;whiteSpace=wrap;html=1;fillColor=#dae8fc;strokeColor=#6c8ebf;fontColor=default;labelBackgroundColor=none;" parent="1" vertex="1">
                    <mxGeometry x="1061" y="240" width="60" height="830" as="geometry"/>
                </mxCell>
                <mxCell id="116" value="&lt;font&gt;data_2&lt;/font&gt;" style="edgeStyle=none;html=1;entryX=-0.004;entryY=0.834;entryDx=0;entryDy=0;entryPerimeter=0;fontColor=default;labelBackgroundColor=default;" parent="1" target="174" edge="1">
                    <mxGeometry relative="1" as="geometry">
                        <mxPoint x="1321.5" y="820" as="sourcePoint"/>
                        <mxPoint x="1401.5" y="820" as="targetPoint"/>
                    </mxGeometry>
                </mxCell>
                <mxCell id="121" value="ALU_res" style="edgeStyle=none;html=1;fontSize=12;fontColor=default;labelBackgroundColor=default;" parent="1" edge="1">
                    <mxGeometry relative="1" as="geometry">
                        <mxPoint x="1641" y="700" as="targetPoint"/>
                        <mxPoint x="1521.5" y="700" as="sourcePoint"/>
                    </mxGeometry>
                </mxCell>
                <mxCell id="118" value="&lt;font style=&quot;font-size: 12px;&quot;&gt;&lt;font style=&quot;font-size: 12px;&quot;&gt;EX/MEM&lt;/font&gt;&lt;br&gt;reg&lt;/font&gt;" style="rounded=0;whiteSpace=wrap;html=1;fillColor=#dae8fc;strokeColor=#6c8ebf;fontColor=default;labelBackgroundColor=none;" parent="1" vertex="1">
                    <mxGeometry x="1641.5" y="240" width="60" height="720" as="geometry"/>
                </mxCell>
                <mxCell id="120" value="&lt;font style=&quot;font-size: 12px;&quot;&gt;MEM/WB&lt;br&gt;reg&lt;br&gt;&lt;/font&gt;" style="rounded=0;whiteSpace=wrap;html=1;fillColor=#dae8fc;strokeColor=#6c8ebf;fontColor=default;labelBackgroundColor=none;" parent="1" vertex="1">
                    <mxGeometry x="2101" y="360" width="60" height="600" as="geometry"/>
                </mxCell>
                <mxCell id="122" value="ALU_res" style="edgeStyle=none;html=1;fontSize=12;fontColor=default;labelBackgroundColor=default;" parent="1" edge="1">
                    <mxGeometry x="-0.0042" y="10" relative="1" as="geometry">
                        <mxPoint x="1701.5" y="699.85" as="sourcePoint"/>
                        <mxPoint x="1820.9999999999995" y="699.85" as="targetPoint"/>
                        <mxPoint as="offset"/>
                    </mxGeometry>
                </mxCell>
                <mxCell id="128" value="ALU_res" style="endArrow=classic;html=1;fontSize=12;fontColor=default;entryX=0;entryY=0.7;entryDx=0;entryDy=0;entryPerimeter=0;labelBackgroundColor=default;" parent="1" target="120" edge="1">
                    <mxGeometry width="50" height="50" relative="1" as="geometry">
                        <mxPoint x="1701" y="700" as="sourcePoint"/>
                        <mxPoint x="2071" y="780" as="targetPoint"/>
                        <Array as="points">
                            <mxPoint x="1761" y="700"/>
                            <mxPoint x="1761" y="880"/>
                            <mxPoint x="2041" y="880"/>
                            <mxPoint x="2041" y="780"/>
                        </Array>
                    </mxGeometry>
                </mxCell>
                <mxCell id="145" value="instr_rd_reg_0" style="endArrow=classic;html=1;entryX=0.005;entryY=0.123;entryDx=0;entryDy=0;entryPerimeter=0;fontColor=default;labelBackgroundColor=default;" parent="1" target="110" edge="1">
                    <mxGeometry x="0.6119" y="-1" width="50" height="50" relative="1" as="geometry">
                        <mxPoint x="620" y="720" as="sourcePoint"/>
                        <mxPoint x="760" y="720" as="targetPoint"/>
                        <Array as="points">
                            <mxPoint x="660" y="720"/>
                            <mxPoint x="660" y="599"/>
                        </Array>
                        <mxPoint as="offset"/>
                    </mxGeometry>
                </mxCell>
                <mxCell id="147" value="instr_rd_reg_1" style="endArrow=classic;html=1;entryX=0;entryY=0.25;entryDx=0;entryDy=0;fontColor=default;labelBackgroundColor=default;" parent="1" target="110" edge="1">
                    <mxGeometry x="0.5355" y="-1" width="50" height="50" relative="1" as="geometry">
                        <mxPoint x="620" y="720" as="sourcePoint"/>
                        <mxPoint x="770.7999999999997" y="609.3600000000001" as="targetPoint"/>
                        <Array as="points">
                            <mxPoint x="660" y="720"/>
                            <mxPoint x="660" y="640"/>
                        </Array>
                        <mxPoint as="offset"/>
                    </mxGeometry>
                </mxCell>
                <mxCell id="148" value="instr_wb_reg&lt;br&gt;kolla på denna" style="endArrow=classic;html=1;entryX=0;entryY=0.375;entryDx=0;entryDy=0;entryPerimeter=0;fontColor=default;labelBackgroundColor=default;" parent="1" target="110" edge="1">
                    <mxGeometry x="0.4444" width="50" height="50" relative="1" as="geometry">
                        <mxPoint x="620" y="720" as="sourcePoint"/>
                        <mxPoint x="770" y="650" as="targetPoint"/>
                        <Array as="points">
                            <mxPoint x="660" y="720"/>
                            <mxPoint x="660" y="680"/>
                        </Array>
                        <mxPoint as="offset"/>
                    </mxGeometry>
                </mxCell>
                <mxCell id="150" value="instr_imm" style="endArrow=classic;html=1;fontColor=default;labelBackgroundColor=default;" parent="1" edge="1">
                    <mxGeometry x="0.72" width="50" height="50" relative="1" as="geometry">
                        <mxPoint x="620" y="720" as="sourcePoint"/>
                        <mxPoint x="840" y="1000" as="targetPoint"/>
                        <Array as="points">
                            <mxPoint x="660" y="720"/>
                            <mxPoint x="660" y="1000"/>
                        </Array>
                        <mxPoint as="offset"/>
                    </mxGeometry>
                </mxCell>
                <mxCell id="152" value="imm_data" style="edgeStyle=none;html=1;entryX=0;entryY=0.8;entryDx=0;entryDy=0;entryPerimeter=0;fontColor=default;labelBackgroundColor=default;" parent="1" edge="1">
                    <mxGeometry x="0.6563" relative="1" as="geometry">
                        <mxPoint x="1120" y="1000" as="sourcePoint"/>
                        <Array as="points">
                            <mxPoint x="1160" y="1000"/>
                            <mxPoint x="1160" y="880"/>
                        </Array>
                        <mxPoint as="offset"/>
                        <mxPoint x="1241.5" y="880" as="targetPoint"/>
                    </mxGeometry>
                </mxCell>
                <mxCell id="153" value="imm_data" style="edgeStyle=none;html=1;fontColor=default;labelBackgroundColor=default;" parent="1" source="151" edge="1">
                    <mxGeometry relative="1" as="geometry">
                        <mxPoint x="1060" y="1000" as="targetPoint"/>
                    </mxGeometry>
                </mxCell>
                <mxCell id="151" value="imm gen&lt;br&gt;(immediate)&lt;br&gt;only padd?" style="rounded=0;whiteSpace=wrap;html=1;fontColor=default;labelBackgroundColor=default;" parent="1" vertex="1">
                    <mxGeometry x="840" y="940" width="80" height="120" as="geometry"/>
                </mxCell>
                <mxCell id="154" value="imm_data" style="edgeStyle=none;html=1;exitX=0.983;exitY=0.901;exitDx=0;exitDy=0;exitPerimeter=0;entryX=0;entryY=0.5;entryDx=0;entryDy=0;fontColor=default;labelBackgroundColor=default;" parent="1" target="155" edge="1">
                    <mxGeometry x="0.885" relative="1" as="geometry">
                        <mxPoint x="1120" y="999.71" as="sourcePoint"/>
                        <mxPoint x="1160" y="480" as="targetPoint"/>
                        <Array as="points">
                            <mxPoint x="1160.02" y="1000"/>
                            <mxPoint x="1160.02" y="880"/>
                            <mxPoint x="1160" y="400"/>
                        </Array>
                        <mxPoint as="offset"/>
                    </mxGeometry>
                </mxCell>
                <mxCell id="157" style="edgeStyle=none;html=1;entryX=0;entryY=0.8;entryDx=0;entryDy=0;entryPerimeter=0;fontColor=default;labelBackgroundColor=default;" parent="1" source="155" target="156" edge="1">
                    <mxGeometry relative="1" as="geometry"/>
                </mxCell>
                <mxCell id="155" value="left shift 1&lt;br&gt;(mul x2)" style="rounded=0;whiteSpace=wrap;html=1;fontColor=default;labelBackgroundColor=default;" parent="1" vertex="1">
                    <mxGeometry x="1241.5" y="360" width="78.5" height="80" as="geometry"/>
                </mxCell>
                <mxCell id="162" value="pc_branch" style="edgeStyle=none;html=1;fontColor=default;labelBackgroundColor=default;" parent="1" source="156" edge="1">
                    <mxGeometry relative="1" as="geometry">
                        <mxPoint x="1640" y="355" as="targetPoint"/>
                    </mxGeometry>
                </mxCell>
                <mxCell id="156" value="add" style="shape=stencil(rZRdD4IgFIZ/DbcNoZpdNqqt2y66bWSULAWH9vXvQ462zHQL27zgvC88Bw5HEGV5zDOBCFY8FYguECHp5b5bb+cbO7R6DCLBGOIbxGEV8jwTUQHalRvJ94kAJy+MPoubPBQVQqpYGFmULl0iPLdzyo+ySCtlIVKrvOG8+RbGpbJr8R1gVfpHFY0IxIisvBHh74jgAzHx2EW96AWZ/QMSfIdQZpWuelO259H5ZPRFHb6mznh5ly2jtlN9FZ3l7TtUDUikegOETcJ4OCKYejCaiNd/4I8IfIrxyRi+jXAwoRfgOq3VME7t6DLKjtqInvY7yiSBV6Una+cEl7qVwanwBjrhCQ==);whiteSpace=wrap;html=1;fontColor=default;labelBackgroundColor=default;" parent="1" vertex="1">
                    <mxGeometry x="1360" y="280" width="80" height="150" as="geometry"/>
                </mxCell>
                <mxCell id="159" value="pc" style="endArrow=classic;html=1;fontColor=default;labelBackgroundColor=default;" parent="1" edge="1">
                    <mxGeometry x="0.871" width="50" height="50" relative="1" as="geometry">
                        <mxPoint x="620" y="480" as="sourcePoint"/>
                        <mxPoint x="1060" y="310" as="targetPoint"/>
                        <Array as="points">
                            <mxPoint x="880" y="480"/>
                            <mxPoint x="880" y="310"/>
                        </Array>
                        <mxPoint as="offset"/>
                    </mxGeometry>
                </mxCell>
                <mxCell id="160" value="" style="endArrow=classic;html=1;entryX=0;entryY=0.2;entryDx=0;entryDy=0;entryPerimeter=0;fontColor=default;labelBackgroundColor=default;" parent="1" target="156" edge="1">
                    <mxGeometry width="50" height="50" relative="1" as="geometry">
                        <mxPoint x="1121" y="310" as="sourcePoint"/>
                        <mxPoint x="1201" y="310" as="targetPoint"/>
                    </mxGeometry>
                </mxCell>
                <mxCell id="161" value="pc" style="edgeLabel;html=1;align=center;verticalAlign=middle;resizable=0;points=[];fontColor=default;labelBackgroundColor=default;" parent="160" vertex="1" connectable="0">
                    <mxGeometry x="0.7537" y="2" relative="1" as="geometry">
                        <mxPoint as="offset"/>
                    </mxGeometry>
                </mxCell>
                <mxCell id="163" value="pc_branch" style="edgeStyle=none;html=1;entryX=0;entryY=0.8;entryDx=0;entryDy=0;entryPerimeter=0;fontColor=default;labelBackgroundColor=default;" parent="1" target="106" edge="1">
                    <mxGeometry x="0.9707" relative="1" as="geometry">
                        <mxPoint x="-360" y="780" as="targetPoint"/>
                        <mxPoint x="1701.5" y="354.74" as="sourcePoint"/>
                        <Array as="points">
                            <mxPoint x="1840" y="355"/>
                            <mxPoint x="1840" y="90"/>
                            <mxPoint x="-320" y="80"/>
                            <mxPoint x="-320" y="780"/>
                        </Array>
                        <mxPoint as="offset"/>
                    </mxGeometry>
                </mxCell>
                <mxCell id="164" value="" style="endArrow=classic;html=1;entryX=0;entryY=0.75;entryDx=0;entryDy=0;fontColor=default;labelBackgroundColor=default;" parent="1" target="110" edge="1">
                    <mxGeometry relative="1" as="geometry">
                        <mxPoint x="2361" y="720" as="sourcePoint"/>
                        <mxPoint x="2521" y="720" as="targetPoint"/>
                        <Array as="points">
                            <mxPoint x="2440" y="720"/>
                            <mxPoint x="2440" y="1120"/>
                            <mxPoint x="700" y="1120"/>
                            <mxPoint x="700" y="800"/>
                        </Array>
                    </mxGeometry>
                </mxCell>
                <mxCell id="165" value="wb_res" style="edgeLabel;resizable=0;html=1;align=center;verticalAlign=middle;fontColor=default;labelBackgroundColor=default;" parent="164" connectable="0" vertex="1">
                    <mxGeometry relative="1" as="geometry"/>
                </mxCell>
                <mxCell id="166" value="wb_res" style="edgeLabel;resizable=0;html=1;align=left;verticalAlign=bottom;fontColor=default;labelBackgroundColor=default;" parent="164" connectable="0" vertex="1">
                    <mxGeometry x="-1" relative="1" as="geometry">
                        <mxPoint x="19" y="10" as="offset"/>
                    </mxGeometry>
                </mxCell>
                <mxCell id="167" value="wb_res" style="edgeLabel;resizable=0;html=1;align=right;verticalAlign=bottom;fontColor=default;labelBackgroundColor=default;" parent="164" connectable="0" vertex="1">
                    <mxGeometry x="1" relative="1" as="geometry">
                        <mxPoint x="-10" y="10" as="offset"/>
                    </mxGeometry>
                </mxCell>
                <mxCell id="169" value="read_data_1" style="endArrow=classic;html=1;fontColor=default;labelBackgroundColor=default;" parent="1" edge="1">
                    <mxGeometry width="50" height="50" relative="1" as="geometry">
                        <mxPoint x="920" y="640" as="sourcePoint"/>
                        <mxPoint x="1060" y="580" as="targetPoint"/>
                        <Array as="points">
                            <mxPoint x="980" y="640"/>
                            <mxPoint x="980" y="580"/>
                        </Array>
                    </mxGeometry>
                </mxCell>
                <mxCell id="170" value="read_data_2" style="endArrow=classic;html=1;fontColor=default;labelBackgroundColor=default;" parent="1" edge="1">
                    <mxGeometry width="50" height="50" relative="1" as="geometry">
                        <mxPoint x="920" y="680" as="sourcePoint"/>
                        <mxPoint x="1060" y="760" as="targetPoint"/>
                        <Array as="points">
                            <mxPoint x="980" y="680"/>
                            <mxPoint x="980" y="760"/>
                        </Array>
                    </mxGeometry>
                </mxCell>
                <mxCell id="172" value="read_data_2" style="endArrow=classic;html=1;fontColor=default;labelBackgroundColor=default;" parent="1" edge="1">
                    <mxGeometry width="50" height="50" relative="1" as="geometry">
                        <mxPoint x="1120" y="760" as="sourcePoint"/>
                        <mxPoint x="1240" y="760" as="targetPoint"/>
                    </mxGeometry>
                </mxCell>
                <mxCell id="173" value="mux" style="shape=stencil(rZRdD4IgFIZ/DbcNoZpdNqqt2y66bWSULAWH9vXvQ462zHQL27zgvC88Bw5HEGV5zDOBCFY8FYguECHp5b5bb+cbO7R6DCLBGOIbxGEV8jwTUQHalRvJ94kAJy+MPoubPBQVQqpYGFmULl0iPLdzyo+ySCtlIVKrvOG8+RbGpbJr8R1gVfpHFY0IxIisvBHh74jgAzHx2EW96AWZ/QMSfIdQZpWuelO259H5ZPRFHb6mznh5ly2jtlN9FZ3l7TtUDUikegOETcJ4OCKYejCaiNd/4I8IfIrxyRi+jXAwoRfgOq3VME7t6DLKjtqInvY7yiSBV6Una+cEl7qVwanwBjrhCQ==);whiteSpace=wrap;html=1;fontColor=default;labelBackgroundColor=default;" parent="1" vertex="1">
                    <mxGeometry x="1241.5" y="720" width="80" height="200" as="geometry"/>
                </mxCell>
                <mxCell id="174" value="ALU" style="shape=stencil(rZRdD4IgFIZ/DbcNoZpdNqqt2y66bWSULAWH9vXvQ462zHQL27zgvC88Bw5HEGV5zDOBCFY8FYguECHp5b5bb+cbO7R6DCLBGOIbxGEV8jwTUQHalRvJ94kAJy+MPoubPBQVQqpYGFmULl0iPLdzyo+ySCtlIVKrvOG8+RbGpbJr8R1gVfpHFY0IxIisvBHh74jgAzHx2EW96AWZ/QMSfIdQZpWuelO259H5ZPRFHb6mznh5ly2jtlN9FZ3l7TtUDUikegOETcJ4OCKYejCaiNd/4I8IfIrxyRi+jXAwoRfgOq3VME7t6DLKjtqInvY7yiSBV6Una+cEl7qVwanwBjrhCQ==);whiteSpace=wrap;html=1;fontColor=default;labelBackgroundColor=default;" parent="1" vertex="1">
                    <mxGeometry x="1400" y="520" width="120" height="360" as="geometry"/>
                </mxCell>
                <mxCell id="176" value="data_mem" style="rounded=0;whiteSpace=wrap;html=1;fontColor=default;labelBackgroundColor=default;" parent="1" vertex="1">
                    <mxGeometry x="1820" y="600" width="160" height="240" as="geometry"/>
                </mxCell>
                <mxCell id="177" value="MEM_read_data" style="endArrow=classic;html=1;fontColor=default;labelBackgroundColor=default;" parent="1" edge="1">
                    <mxGeometry width="50" height="50" relative="1" as="geometry">
                        <mxPoint x="1980" y="659.66" as="sourcePoint"/>
                        <mxPoint x="2100" y="660" as="targetPoint"/>
                    </mxGeometry>
                </mxCell>
                <mxCell id="178" value="MEM_read_data" style="endArrow=classic;html=1;fontColor=default;labelBackgroundColor=default;" parent="1" edge="1">
                    <mxGeometry width="50" height="50" relative="1" as="geometry">
                        <mxPoint x="2161" y="659.6599999999996" as="sourcePoint"/>
                        <mxPoint x="2281" y="660" as="targetPoint"/>
                        <mxPoint as="offset"/>
                    </mxGeometry>
                </mxCell>
                <mxCell id="179" value="ALU_res" style="endArrow=classic;html=1;fontColor=default;labelBackgroundColor=default;" parent="1" edge="1">
                    <mxGeometry width="50" height="50" relative="1" as="geometry">
                        <mxPoint x="2161" y="779.9999999999997" as="sourcePoint"/>
                        <mxPoint x="2281" y="780.34" as="targetPoint"/>
                        <mxPoint as="offset"/>
                    </mxGeometry>
                </mxCell>
                <mxCell id="180" value="mux" style="shape=stencil(rZRdD4IgFIZ/DbcNoZpdNqqt2y66bWSULAWH9vXvQ462zHQL27zgvC88Bw5HEGV5zDOBCFY8FYguECHp5b5bb+cbO7R6DCLBGOIbxGEV8jwTUQHalRvJ94kAJy+MPoubPBQVQqpYGFmULl0iPLdzyo+ySCtlIVKrvOG8+RbGpbJr8R1gVfpHFY0IxIisvBHh74jgAzHx2EW96AWZ/QMSfIdQZpWuelO259H5ZPRFHb6mznh5ly2jtlN9FZ3l7TtUDUikegOETcJ4OCKYejCaiNd/4I8IfIrxyRi+jXAwoRfgOq3VME7t6DLKjtqInvY7yiSBV6Una+cEl7qVwanwBjrhCQ==);whiteSpace=wrap;html=1;fontColor=default;labelBackgroundColor=default;" parent="1" vertex="1">
                    <mxGeometry x="2280" y="630" width="80" height="200" as="geometry"/>
                </mxCell>
            </root>
        </mxGraphModel>
    </diagram>
</mxfile>